<svg xmlns="http://www.w3.org/2000/svg" width="150" height="150" viewBox="0 0 150 150"><rect width="100%" height="100%" fill="#4f46e5"/><path fill="#ffffff" d="m65.02 53.58-2.45 4.63q-.44.77-.93 1.11-.49.35-1.22.35-.77 0-1.66-.57-.9-.56-2.14-1.25-1.24-.7-2.9-1.26-1.66-.57-3.92-.57-2.05 0-3.58.49-1.53.5-2.57 1.37-1.04.88-1.55 2.1-.52 1.22-.52 2.68 0 1.87 1.04 3.11 1.05 1.24 2.76 2.11 1.72.88 3.91 1.57 2.19.7 4.49 1.48 2.3.79 4.49 1.83t3.9 2.62q1.72 1.59 2.76 3.89t1.04 5.59q0 3.57-1.23 6.69-1.22 3.12-3.57 5.44-2.36 2.32-5.75 3.65-3.4 1.33-7.78 1.33-2.51 0-4.96-.49t-4.69-1.4q-2.25-.92-4.22-2.19-1.97-1.28-3.5-2.85l2.88-4.71q.37-.51.95-.86.59-.34 1.24-.34.92 0 1.97.74 1.06.75 2.52 1.67 1.46.91 3.42 1.66 1.95.74 4.69.74 4.19 0 6.49-1.99 2.3-1.98 2.3-5.71 0-2.08-1.04-3.39-1.04-1.32-2.75-2.21-1.72-.89-3.91-1.51-2.19-.63-4.45-1.36-2.27-.73-4.46-1.75t-3.9-2.66q-1.72-1.64-2.76-4.11-1.04-2.46-1.04-6.08 0-2.88 1.15-5.62 1.15-2.73 3.34-4.85t5.4-3.4q3.22-1.27 7.38-1.27 4.67 0 8.61 1.46t6.72 4.09m46.79-4.97h7.92l-21.32 52.78h-8.86L68.23 48.61h7.88q1.28 0 2.08.62.81.62 1.21 1.61l12.44 32.19q.63 1.57 1.19 3.45.57 1.88 1.08 3.92.44-2.04.95-3.92t1.13-3.45l12.37-32.19q.29-.84 1.15-1.54.86-.69 2.1-.69"/></svg>